<svg id="Layer_1" data-name="Layer 1" xmlns="http://www.w3.org/2000/svg" viewBox="0 0 805 805"><defs><style>.cls-1{fill:#fff;}.cls-2,.cls-3{fill:#4971e7;}.cls-3{font-size:260.83px;font-family:Impact;}</style></defs><path class="cls-1" d="M522.1,897.66a381.25,381.25,0,1,1,148.88-30A380.06,380.06,0,0,1,522.1,897.66Z" transform="translate(-119.6 -112.66)"/><path class="cls-2" d="M522.1,152.66A361.22,361.22,0,1,1,381,181.13,360.26,360.26,0,0,1,522.1,152.66m0-40c-222.3,0-402.5,180.21-402.5,402.5s180.2,402.5,402.5,402.5,402.5-180.2,402.5-402.5-180.21-402.5-402.5-402.5Z" transform="translate(-119.6 -112.66)"/><text class="cls-3" transform="translate(166.6 505.11) scale(1.01 1)">BMS</text></svg>