<svg width="16" height="16" viewBox="0 0 16 16" fill="none" xmlns="http://www.w3.org/2000/svg">
<path d="M7.86564 1.33325C9.87966 1.33325 11.5002 2.94311 11.5002 4.93059V5.95282C12.6306 6.31122 13.4542 7.35068 13.4542 8.59219V11.8835C13.4542 13.4204 12.1998 14.6666 10.6533 14.6666H5.09869C3.55149 14.6666 2.29706 13.4204 2.29706 11.8835V8.59219C2.29706 7.35068 3.12134 6.31122 4.25106 5.95282V4.93059C4.25773 2.94311 5.87829 1.33325 7.86564 1.33325ZM7.87231 8.92277C7.5522 8.92277 7.29211 9.18114 7.29211 9.49914V10.9699C7.29211 11.2945 7.5522 11.5529 7.87231 11.5529C8.19909 11.5529 8.45917 11.2945 8.45917 10.9699V9.49914C8.45917 9.18114 8.19909 8.92277 7.87231 8.92277ZM7.87898 2.49261C6.52518 2.49261 5.4248 3.5791 5.41813 4.91734V5.80905H10.3332V4.93059C10.3332 3.58573 9.23277 2.49261 7.87898 2.49261Z" fill="#61758A"/>
</svg>
