<svg width="16" height="16" viewBox="0 0 16 16" fill="none" xmlns="http://www.w3.org/2000/svg">
<path d="M11.2928 2C12.1868 2 13.0468 2.35333 13.6795 2.98733C14.3128 3.62 14.6668 4.47333 14.6668 5.36667V10.6333C14.6668 12.4933 13.1535 14 11.2928 14H4.70681C2.84615 14 1.33348 12.4933 1.33348 10.6333V5.36667C1.33348 3.50667 2.83948 2 4.70681 2H11.2928ZM12.0468 5.46667C11.9068 5.45933 11.7735 5.50667 11.6728 5.6L8.66681 8C8.28015 8.32067 7.72615 8.32067 7.33348 8L4.33348 5.6C4.12615 5.44667 3.83948 5.46667 3.66681 5.64667C3.48681 5.82667 3.46681 6.11333 3.61948 6.31333L3.70681 6.4L6.74015 8.76667C7.11348 9.06 7.56615 9.22 8.04015 9.22C8.51281 9.22 8.97348 9.06 9.34615 8.76667L12.3535 6.36L12.4068 6.30667C12.5661 6.11333 12.5661 5.83333 12.3995 5.64C12.3068 5.54067 12.1795 5.48 12.0468 5.46667Z" fill="#7B8698"/>
</svg>
